<?xml version="1.0" encoding="UTF-8"?>
<svg id="Layer_1" data-name="Layer 1" xmlns="http://www.w3.org/2000/svg" version="1.1" viewBox="0 0 750 750">
  <defs>
    <style>
      .cls-1, .cls-2, .cls-3, .cls-4, .cls-5, .cls-6, .cls-7, .cls-8, .cls-9, .cls-10, .cls-11, .cls-12, .cls-13 {
        stroke-miterlimit: 10;
      }

      .cls-1, .cls-2, .cls-3, .cls-4, .cls-6, .cls-7, .cls-8, .cls-9, .cls-10, .cls-11, .cls-12 {
        stroke: #0a2a42;
      }

      .cls-1, .cls-2, .cls-4, .cls-5, .cls-13 {
        fill: none;
      }

      .cls-2, .cls-7 {
        stroke-width: 3px;
      }

      .cls-14 {
        fill: #000;
      }

      .cls-14, .cls-15, .cls-16, .cls-17, .cls-18, .cls-19, .cls-20, .cls-21 {
        stroke-width: 0px;
      }

      .cls-3 {
        fill: #6acfc9;
      }

      .cls-4, .cls-5, .cls-13 {
        stroke-width: 4.1px;
      }

      .cls-15 {
        fill: #d7e8f0;
      }

      .cls-5 {
        stroke: #ccdde2;
      }

      .cls-6, .cls-16 {
        fill: #53bf9d;
      }

      .cls-7 {
        fill: #ececec;
      }

      .cls-8, .cls-19 {
        fill: #fe566a;
      }

      .cls-17 {
        fill: #c1dff7;
      }

      .cls-9, .cls-10 {
        fill: #3fbdf1;
      }

      .cls-9, .cls-11 {
        stroke-width: .5px;
      }

      .cls-11 {
        fill: #fdc409;
      }

      .cls-12, .cls-18 {
        fill: #fff;
      }

      .cls-13 {
        stroke: #000;
      }

      .cls-20 {
        fill: #5463ff;
      }

      .cls-21 {
        fill: #0a2a42;
      }
    </style>
  </defs>
  <g>
    <g>
      <path class="cls-21" d="M525.9,253.8c1.2-.9,2.7-1.4,4.3-1.4,3.1,0,5.2,2.7,8.1,3.4,2.1.6,4,.1,6.2-.6,2.2-.7,4.4-1.3,6.6-1.8,2.6-.6,5-1,7.7-.1,5.3,1.7,7.6,7.1,12.6,8.6,4.1,1.3,9.2.3,12.3,4.1,1.5,1.8,2.5,4,3.1,6.3s.7,4.7.2,7c-.4,1.7-1.1,3.4-2,4.9-2.1,3.5,2.5,5.4,4,8.6.9,1.8.8,5,0,7.7-.2.2,1.1,1,.9,1.2-3.2,3.1-4.2,6.1-3.8,10.4.6,6.3-7.4,14-14.4,10.4l1,7.9c-2.4,0-4.7-.8-6.5-2.3s-3.1-3.6-3.6-6l-1.3-6.7c6-2.6,6.7-11.9,2.6-16.3-2.1-2.3-4.1-1.4-5.8.3-1.8-.3-1.8,2.8-3.2,4.6l-4.7-4.7c3.1-5.7,5.7-11.8,7.5-18.1.2-.6.2-1.1.2-1.7,0-.6-.2-1.1-.5-1.7-.3-.5-.6-1-1.1-1.3-.4-.4-1-.7-1.5-.8l-2.9-.7c-5.1-.5-10.3-.7-15.3-1.8-3.9-.8-8.5-2.3-10.7-6-2.2-3.4-2.2-9.3.1-13.4Z"/>
      <path class="cls-2" d="M490.6,192.5c5.1,25.4,49.1,32.9,69,35,7.7.8,15.2,2.5,22.4,5.1,124.7,46.6,40,140,40,140"/>
      <path class="cls-5" d="M266.5,241.9h0"/>
      <path class="cls-13" d="M488.7,410h0"/>
      <path class="cls-4" d="M572.5,330.5c-2.4,0-4.7-.8-6.5-2.3s-3.1-3.6-3.6-6l-1.3-6.7c6-2.6,6.7-11.9,2.6-16.3-2.1-2.3-4.1-1.4-5.8.3-1.1,1.2-2.1,2.5-2.9,4"/>
      <path class="cls-2" d="M571.5,322.6l1,7.9c.3,1.9,1,7.7,1.7,13.7.8,6.5,1.7,13.3,2,15.9"/>
      <path class="cls-2" d="M540.1,291c-1.9-8.2-11.9-8.7-11.9-8.7"/>
      <path class="cls-2" d="M530.6,271.3c-4,4.4-3.5,11-3.8,15.2,0,2.5-1.1,4.9-2.8,6.7l-6.8,7.6c1.3,2.7,4.8,3.1,7.5,3.2"/>
      <path class="cls-21" d="M534.5,294c1.1-1,1-2.7,0-4-1.1-1.2-2.9-1.5-3.9-.5-1.1,1-1,2.7,0,4,1.1,1.2,2.8,1.5,3.9.5Z"/>
      <path class="cls-2" d="M536.4,328.6l-5.2,25"/>
      <path class="cls-20" d="M419,422.8c10.9,10.4,22.6,19.9,36.6,25.6,1.5-3.3,3.3-6.9,5.2-10.8,7-14,14.8-27.6,23.6-40.6,9.9-14.4,21.3-28.1,33.9-37.7,2.5-1.9,5.1-3.5,7.9-4.8,7.4-3.4,15.5-4.5,23.5-3.4,8,1.2,15.5,4.6,21.6,10,3.5,3,6.4,6.6,8.8,10.6,2.7,4.6,5,9.4,6.9,14.4,22.4,59-19.6,126.7-67.8,160.5-23.8,16.7-53.5,24.2-82.4,22.1-6-.5-11.9-1.3-17.8-2.4,0,0-30.3-11.2,9.7-72.2l-33.2-27s36.6-19.7,23.5-44.3Z"/>
      <path class="cls-16" d="M65.8,459.1c.2-1.8.9-3.5,1.9-5s2.4-2.7,4-3.5,3.4-1.3,5.2-1.3v-.4c-.8-10.2,10-17.1,19.2-12.8,13.6,6.4,30.7,10.9,39.4,13,2.4.6,4.9,1,7.5,1.1q.1.1.2.2c-3.6,5.1-5.6,11.2-5.7,17.4-.1,6.3,1.8,12.4,5.3,17.6-5.3,15.6-4.6,24.6-2.2,29.6-5.8,0-56.1-1.4-74-50.8-.9-1.5-1.1-3.3-.8-5.1Z"/>
      <path class="cls-15" d="M319.3,538.3c3.5-.2,7,0,10.5.7,6,1.4,11.9,2.8,17.8,4.3,16.9,4.3,33.6,10.4,50.4,15.5,14.4,4.3,28.9,7.9,43.8,9,2.3.2,4.6.3,6.8.3h.3c26.6.5,53.4-7.1,75.2-22.4,48.2-33.8,90.2-101.5,67.8-160.5,0-.4-.2-1-.2-1.4-1.4-11.1,6.5-18.3,15.1-19.4,2.3.3,4.4,1.1,6.4,2.2,1.9,1.2,3.6,2.8,4.9,4.7,1,1.4,1.8,2.9,2.3,4.5,16.5,46.4,34.8,146.7-66.9,231.6-32.2,26.9-74.2,40.7-116.3,41.2-42-.5-83.9-14.3-115.9-41.4-9.1-7.7-18.5-16.6-24.6-26.9-12.7-22.2,1.9-40.6,22.6-42Z"/>
      <path class="cls-17" d="M319.3,538.3c1.8,0,3.6.4,5.4.7,6,1.4,11.9,2.8,17.8,4.3,16.9,4.3,33.6,10.4,50.4,15.5,14.4,4.3,28.9,7.9,43.8,9,4,.3,7.9.4,12,.3h.3c26.6.5,53.4-7.1,75.2-22.4,48.2-33.8,90.2-101.5,67.8-160.5,0-.4-.2-1-.2-1.4-1.4-11.1,6.5-18.3,15.1-19.4,2.3.3,4.4,1.1,6.4,2.2,1.9,1.2,3.6,2.8,4.9,4.7,1,1.4,1.8,2.9,2.3,4.5,16.5,46.4,34.8,146.7-66.8,231.6-32.2,26.9-74.2,40.7-116.3,41.2-43.8.6-87.7-13.2-121-41.4-9.1-7.7-18.5-16.6-24.6-26.9-13.9-24,4.2-43.6,27.5-42Z"/>
      <path class="cls-17" d="M454.1,648.2l10.8,16.3s63.4,7,91.7,29c6.6,5.1,3.1,15.8-5.3,15.8h-1.3c-1.2,0-2.4-.2-3.4-.7-1.1-.5-2.1-1.1-2.9-2-7.1-7.6-33-28.5-100.4-27.8-69.2.6-99.7,21.8-107.7,28.5-1.6,1.3-3.6,2-5.6,2-8.2,0-11.9-10.2-5.7-15.5,33.9-28.5,95.8-30.9,95.8-30.9l10.2-14.5"/>
      <path class="cls-17" d="M109.9,568.2c11.7,13.3,11.4,55.4,10.7,72.7-.2,4.8-1.8,9.5-4.6,13.5-3.7,5.1-9.1,8.7-15.3,10-12.3,2.7-34.5,10.1-52.6,29.8-1.2,1.3-2,2.9-2.3,4.6-.3,1.7,0,3.5.6,5.1.7,1.6,1.8,3,3.3,3.9,1.5,1,3.2,1.5,4.9,1.5s2.8-.3,4-1c1.2-.6,2.3-1.5,3.1-2.6,6-8,24.8-26.5,71.3-26.9,41.3-.4,58.4,17.7,64.1,26.2.9,1.3,2.1,2.4,3.5,3.2s3,1.1,4.6,1.1c8.6,0,13-10.3,7.1-16.5-13.9-14.9-36.4-22.7-48.8-26.1-5.9-1.6-11-5.3-14.4-10.3l-2.1-3.1c-2.2-3.3-3.6-7.2-4-11.2-5.9-55.9,13.1-73.9,13.1-73.9"/>
      <path class="cls-13" d="M366.6,434.3h0"/>
      <path class="cls-16" d="M40.8,546.9c1.5-2.1,3.5-3.9,5.8-5.1,2.3-1.2,4.9-1.8,7.5-1.8h147c3.7-.2,7.3,1,10.1,3.5,2.8,2.4,4.5,5.9,4.8,9.5.3,3.7-.9,7.3-3.3,10.2-2.4,2.8-5.8,4.6-9.5,5H56.2c-2.1,0-4.2-.4-6.2-1.2s-3.8-2-5.3-3.5-2.7-3.3-3.5-5.3-1.2-4.1-1.2-6.2c0-1.7.2-3.4.8-5.1Z"/>
      <path class="cls-2" d="M109.9,568.2c11.7,13.3,11.4,55.4,10.7,72.7-.2,4.8-1.8,9.5-4.6,13.5-3.7,5.1-9.1,8.7-15.3,10-12.3,2.7-34.5,10.1-52.6,29.8-1.2,1.3-2,2.9-2.3,4.6-.3,1.7,0,3.5.6,5.1.7,1.6,1.8,3,3.3,3.9,1.5,1,3.2,1.5,4.9,1.5s2.8-.3,4-1c1.2-.6,2.3-1.5,3.1-2.6,6-8,24.8-26.5,71.3-26.9,41.3-.4,58.4,17.7,64.1,26.2.9,1.3,2.1,2.4,3.5,3.2s3,1.1,4.6,1.1c8.6,0,13-10.3,7.1-16.5-13.9-14.9-36.4-22.7-48.8-26.1-5.9-1.6-11-5.3-14.4-10.3l-2.1-3.1c-2.2-3.3-3.6-7.2-4-11.2-5.9-55.9,13.1-73.9,13.1-73.9"/>
      <path class="cls-1" d="M555.1,302.8c0,.2-.2.5-.2.7,0,.2-.2.4-.2.6"/>
      <path class="cls-1" d="M550.1,299.4l3,3.1,1.6,1.6"/>
      <path class="cls-2" d="M550,299.4c3.1-5.7,5.7-11.8,7.5-18.1.3-1.1.2-2.3-.3-3.4-.5-1-1.5-1.8-2.6-2.2l-2.9-.7c-5.1-.5-10.3-.7-15.3-1.8-3.9-.8-8.5-2.3-10.7-6-2.1-3.5-2.1-9.4,0-13.5,1.4-2.6,3.8-4.5,7-4.4,3.2,0,5.4,2.7,8.3,3.5,2.2.7,4.2.1,6.5-.6,2.2-.7,4.5-1.3,6.8-1.8,2.7-.6,5.2-1,7.9-.1,5.4,1.7,7.8,7.2,13,8.9,4.3,1.4,9.5.3,12.7,4.2,1.5,1.9,2.6,4.1,3.2,6.4.6,2.3.7,4.8.2,7.2-.4,1.8-1.1,3.5-2.1,5.1-2.2,3.6,1,5.6,2.4,9,.8,1.6,1.1,3.4.8,5.2-.3,1.8-1.1,3.4-2.3,4.8-.2.2-.4.4-.6.6-3.2,3.1-4.2,6.1-3.8,10.4.6,6.3-7.4,14-14.4,10.4"/>
      <path class="cls-2" d="M522,304.1s-5,18.3,3.8,24.5,24.2-5.1,24.2-5.1"/>
      <path class="cls-7" d="M490.5,192.4c0-47.2-38.3-85.5-85.5-85.5s-85.5,38.3-85.5,85.5,38.3,85.5,85.5,85.5,85.5-38.3,85.5-85.5Z"/>
      <path class="cls-2" d="M54,522.1c-27.3-56-51.5-144.3,8.6-223.6,39.6-52.1,84-56.8,121.3-52.1,112.4,4.9,141.6-85.4,141.6-85.4"/>
      <g>
        <path class="cls-2" d="M348.3,409.1c-8.8.1-21.3,9.7-29.1,16.3-.9.7-1.9,1.3-3,1.6-1.1.3-2.2.4-3.4.2-1.1-.2-2.2-.6-3.1-1.2s-1.8-1.5-2.4-2.4c-.9-1.5-1.3-3.3-1.1-5.1s1-3.4,2.3-4.7c16.3-16.5,39-29.6,63-25.3,18.6,3.3,31.6,15.6,44.4,28.5,12.8,12.8,26.7,25.5,44,32.1,15.8,6.1,27.1-1.8,33.7-14.6,8.8-16.9,17.6-33.8,26.4-50.7"/>
        <path class="cls-2" d="M362.6,435.6c2.7-1.8,6.8-2,9.5-3.8"/>
        <path class="cls-2" d="M373.8,440.5c-7.9,4.9-13,7.3-21,3.3-7.3-3.7-13.7-8.9-18.9-15.3-4.1-5-2-13.3,3.8-16.1"/>
        <path class="cls-2" d="M340.1,435.1c-.1-.4-.2-.9-.2-1.4-.3-11,11.1-13.9,11.1-13.9"/>
        <path class="cls-2" d="M351,442.8c-7.3-6.2,8-16.1,8-16.1"/>
        <path class="cls-2" d="M138.9,486c14.4,3.7,29.1,6.6,43.6,9.9,36.3,8.3,72.5,17,108.3,27.1,35.6,10,71.8,20.6,105.2,36.8"/>
        <path class="cls-2" d="M561.2,367.8c11.5,6.3,13.3,18.3,13.1,30.3,0,1.4,0,2.8,0,4.3-2.5,43.9-30.8,89.4-71.4,107.6-.7.3-1.4.6-2.1.9-26.4,10.3-55.1-5.8-77-22.4-.7-.5-1.3-1-2-1.5-3.2-2.5-6.3-5-9.2-7.4-11.5-9.7-22.5-20.2-32.8-31.2-1.9-2-9.3-13-11.4-15.1"/>
        <path class="cls-2" d="M329.2,540.4c-26.4-6.5-49.8,14.6-34.5,40.8,6.1,10.4,15.5,19.2,24.6,26.9,65.4,55.4,171.7,55,237.3.2,101.7-84.9,83.3-185.2,66.9-231.6-7-19.7-36.4-12.7-33.8,8l.2,1.3"/>
        <path class="cls-2" d="M452.1,649.2l10.8,16.3s63.4,7,91.7,29c6.6,5.1,3.1,15.8-5.3,15.8h-1.3c-1.2,0-2.4-.2-3.4-.7-1.1-.5-2.1-1.1-2.9-2-7.1-7.6-33-28.5-100.4-27.8-69.2.6-99.7,21.8-107.7,28.5-1.6,1.3-3.6,2-5.6,2-8.2,0-11.9-10.2-5.7-15.5,33.9-28.5,95.8-30.9,95.8-30.9l10.2-14.5"/>
        <path class="cls-2" d="M422,368.2c4.3,24.6,15,61.2,41,68.2"/>
        <path class="cls-2" d="M450.1,352.2c-.9-.2-1.7-.3-2-.4-2.3-.6-4.5-1.2-6.4-2.7-1.9-1.6-3.1-3.9-2.1-6.3.5-1.2,1.3-2.3,2.3-3.1,1-.9,2.1-1.5,3.4-1.9,2.1-.6,4.3-.7,6.5-.1,4.2,1,7.8,4.1,8.6,8.6,1,6.3-3.2,12.4-6.1,17.6-.7,1.3-1.1,2.7-1.1,4.2s.3,2.9.9,4.2c3,6.6,7.6,12.4,13.4,16.8,5.8,4.3,12.7,7.1,19.9,8.1"/>
        <path class="cls-2" d="M74.8,450.5c.4,3.3,1.5,6.5,3.3,9.3,9.6,15.4,60.8,26.2,60.8,26.2"/>
        <path class="cls-2" d="M458.5,448.4c11.6-25,34.3-67.3,62.8-89.1,20.1-15.4,49-9.4,61.8,12.4,36.2,62-8.8,138.3-60.9,174.9-23.8,16.7-53.5,24.2-82.4,22.1-14.9-1.1-29.5-4.6-43.9-9-16.9-5.1-33.6-11.2-50.4-15.5-60.7-15.5-122.7-24.3-185.3-27.3-7.1-.4-14.2-.6-21.3-.9,0,0-55.5,1.6-74.6-50.8-.6-1.7-.8-3.5-.6-5.3.2-1.8.9-3.5,1.9-4.9s2.4-2.7,4-3.5,3.4-1.3,5.2-1.3v-.4c-.8-10.2,10-17.1,19.2-12.8,13.6,6.4,30.7,10.9,39.4,13,3.6.9,7.2,1.3,10.9,1.3h56.5s100.8-1.4,190,8.1"/>
        <path class="cls-2" d="M40.4,544.1c0-6.7,2.7-13,7.4-17.7,4.7-4.8,11.1-7.4,17.7-7.4h124.2c6.6,0,13,2.7,17.7,7.4s7.4,11.1,7.4,17.7"/>
        <path class="cls-2" d="M38.8,547.9c1.1-3.3,3.1-6.1,5.9-8.1,2.8-2,6.1-3.1,9.5-3.1h147c2.2,0,4.3.3,6.3,1.1s3.8,2,5.4,3.5c1.5,1.5,2.8,3.3,3.6,5.3s1.3,4.1,1.3,6.3-.4,4.3-1.3,6.3c-.8,2-2.1,3.8-3.6,5.3s-3.4,2.7-5.4,3.5-4.2,1.2-6.3,1.1H54.2c-2.1,0-4.2-.4-6.2-1.2s-3.8-2-5.3-3.5-2.7-3.3-3.5-5.3-1.2-4.1-1.2-6.2c0-1.6.2-3.3.8-5Z"/>
        <path class="cls-2" d="M418.8,338.2l-.6-4.9c-.1-.7,0-1.3.2-1.9s.5-1.2,1-1.7c.4-.5,1-.9,1.6-1.1.6-.3,1.2-.4,1.9-.4h24.8c.7,0,1.3.1,1.9.4s1.1.7,1.6,1.1c.4.5.8,1.1,1,1.7s.3,1.3.2,1.9l-.5,4.3c-2.1-.6-4.4-.5-6.5.1-1.3.4-2.4,1-3.4,1.9s-1.8,1.9-2.3,3.1c-1,2.4.2,4.7,2.1,6.3,1.9,1.6,4.1,2.1,6.4,2.7.3.1,1.1.3,2,.4l-2.1,17.9c-.1,1.1-.7,2.2-1.5,2.9s-2,1.2-3.1,1.2h-16.2c-1.1,0-2.2-.4-3.1-1.2-.9-.8-1.4-1.8-1.5-2.9l-.3-2.5"/>
        <path class="cls-2" d="M420.1,349.5v-.2"/>
        <path class="cls-2" d="M421.3,359.6h0"/>
        <path class="cls-2" d="M410.9,347.5c.3.3.6.5,1,.7,2.4,1.3,6.1,1.3,8.3,1.2,1.1-.1,1.9-.2,1.9-.2,3-.3,6.6-3.1,5.8-6.4-.8-3.7-5.4-4.9-8.7-4.5h-.3c-1.7.3-3.3,1.1-4.5,2.3-1.2,1.2-2,2.8-2.2,4.5-.1,1-.3,2.1-.3,3.1-.1,2.4.1,4.9.5,7.3h0c.6,3.4,1.8,6.5,3.5,9.3,1.3,1.5,3.1,2.5,5,2.8.4.1.9.1,1.3,0,1-.2,1.9-.7,2.5-1.5s.9-1.8.8-2.8-.5-1.9-1.3-2.6c-.7-.7-1.7-1.1-2.7-1.1h-.5"/>
        <path class="cls-2" d="M412.4,355.4c1,4.8,7.2,4.6,12.5,3.8,1.2-.2,2.3-.8,3-1.7.8-.9,1.1-2.1,1.1-3.3-.1-1.2-.6-2.4-1.5-3.2-.9-.9-2.1-1.3-3.3-1.3h-6.4"/>
        <path class="cls-2" d="M201.8,436.6c2.9-1.8,5.3-4.2,6.2-7.2,50.3,1.4,115.4,3.2,115.4,3.2,5,.1,9,4.7,9,10.1v.2c-.1,5.6-4.4,10-9.5,9.9l-116.2-2.7c-6-.1-13-1.6-13-10.3v-1.3c2.8.2,5.6-.5,8.1-1.9Z"/>
        <path class="cls-2" d="M132,315.5c0-2.1.7-4.2,2-5.9,1.3-1.7,3.2-2.8,5.2-3.3,2.1-.5,4.3-.2,6.2.7s3.5,2.5,4.4,4.4l52,106.6c.4.9.7,1.8.9,2.8.1.4.1.9.1,1.3,0,1.8-.5,3.5-1.4,5s-2.3,2.7-3.9,3.5c-2,1-4.3,1.2-6.4.7-1.3-.3-2.6-.9-3.7-1.8-1.1-.9-1.9-2-2.6-3.2l-52-106.5c-.5-1.4-.9-2.8-.8-4.3h0Z"/>
        <path class="cls-2" d="M28.1,710.2h591.6"/>
      </g>
    </g>
    <path class="cls-2" d="M526.9,314.8c7.8-.4,9.9-6.5,9.9-6.5"/>
    <path class="cls-18" d="M197.3,192.2l5-4.6c.9-.8,2-1.4,3.2-1.7s2.5-.2,3.7.1c1.2.4,2.3,1,3.1,1.9s1.4,2,1.7,3.2l1.5,6.6,1.6,6.6c.3,1.2.2,2.5-.1,3.7-.4,1.2-1,2.3-1.9,3.1s-2,1.4-3.2,1.7-2.5.2-3.7-.1l-6.5-2-6.5-2c-1.2-.4-2.3-1-3.1-1.9s-1.4-2-1.7-3.2-.2-2.5.1-3.7c.4-1.2,1-2.3,1.9-3.1l4.9-4.6Z"/>
    <path class="cls-18" d="M217.9,316.6c0-2.4-2-4.4-4.4-4.4s-4.4,2-4.4,4.4,2,4.4,4.4,4.4c2.5.1,4.4-1.9,4.4-4.4Z"/>
    <g>
      <path class="cls-2" d="M441.8,294.9s-5.6,6-1.4,10.5-2.4,9-2.4,9"/>
      <path class="cls-2" d="M429.5,302.2s3.7,4,.9,7c-2.8,3,1.6,5.9,1.6,5.9"/>
    </g>
  </g>
  <circle class="cls-8" cx="102.2" cy="128.3" r="9"/>
  <polygon class="cls-10" points="719 147 704.3 149.2 713.4 160.8 719 147"/>
  <polygon class="cls-3" points="711.5 513.3 723.9 521.3 724.8 506.6 711.5 513.3"/>
  <circle class="cls-6" cx="567.3" cy="144.8" r="9"/>
  <circle class="cls-12" cx="460.2" cy="48.7" r="9"/>
  <g>
    <path class="cls-14" d="M419.6,156.8c.2-1.3.3-2.7.7-4.1.6-2.1,1.9-3.4,3.4-3.4,1.5,0,3.1,1.2,3.8,3.1.3.8.5,1.6.6,2.4.2.8.2,1.7.3,2.6,1.1,0,2.2.1,3.3.2,3.4.1,6.1,2.6,6.4,6,1.1,13.9,1.4,27.9.7,41.8,0,.9,0,1.8,0,2.7,1.4.3,2.7.5,4,.9,8.7,2.7,13.8,11.4,12.2,20.5-.6,3.4-1.4,6.6-3.6,9.4-4.4,5.5-12.1,7.8-19.4,5.6-8.5-2.5-14-9.9-13.9-18.8,0-.2,0-.3,0-.6-3,.1-6,.2-9,.3-12.7.4-25.5.3-38.2-.6-1.4,0-2.8-.3-4.2-.7-4.8-1.1-7.6-4.5-8-9.8-.1-1.6-.2-3.2-.2-4.8,0-12.8-.2-25.7-.1-38.5,0-2.3.3-4.6.9-6.8,1.2-4.3,4.1-6.5,8.6-6.8,1.5,0,3.1-.2,4.6-.3.2-1.2.3-2.4.5-3.6.1-.6.3-1.3.6-1.9,1.3-2.8,4.4-3.2,6-.5.8,1.3,1,2.9,1.5,4.4.1.3,0,.7.1,1h6.4c.2-1.5.3-2.8.5-4.1.1-.8.4-1.5.8-2.2,1.1-2,3.1-2.4,5-1,1.7,1.3,2,3.2,2.3,5.1,0,.6.1,1.2.2,1.9h6.3c.2-1.1.3-2.2.5-3.3,0-.5.2-.9.4-1.4.5-1.4,1.4-2.6,3-2.7,1.6-.1,2.8.7,3.5,2.1.6,1.3.9,2.7,1.3,4.1.1.4,0,.9.2,1.5h8.4ZM362.6,173.7c0,1.6-.2,3.1-.2,4.6-.4,12.3,0,24.6.9,36.8,0,.6.3,1.4.7,1.9,1.5,1.8,3.4,3.1,5.8,3.3,5,.3,10,.7,15,.8,11.1.3,22.3-.3,33.4-1.1.7,0,1-.4,1.2-1,2.5-5.6,6.7-9.1,12.7-10.3,1.3-.3,2.7-.3,4.1-.4,0-1.3.2-2.5.2-3.7,0-9.8,0-19.7,0-29.5,0-1.5,0-1.5-1.5-1.5-23.7,0-47.3,0-71,0h-1.4ZM362.8,171.3h73.5c-.2-2.7-.3-5.2-.6-7.8-.2-2-1.8-3.4-3.9-3.5-2-.2-3.9-.3-5.9-.3-1.2,0-2.4,0-3.6,0,.3,1.4.3,2.6,2,3.2,1.5.5,1.6,2.4.4,3.4-1,.9-2.8,1-3.8,0-.8-.7-1.2-1.8-.6-2.6.5-.7.4-1.2.1-1.9-.3-.8-.2-2-.8-2.4-.6-.4-1.7-.2-2.6-.2-4,0-7.9,0-11.9,0,0,1.5.5,2.5,1.4,3,1.3.6,1.9,1.9,1.3,3-.7,1.3-2.7,1.8-4,1-1.2-.7-1.5-2.1-.7-3.3.2-.2.3-.6.3-.8-.2-1.1-.5-2.1-.8-3.2-2.1,0-4.2,0-6.2,0s-4.1,0-6.3,0c.4,1,0,2.1,1.2,2.4,1.4.4,2.1,1.4,2,2.5-.2,1.2-1.5,2.1-2.8,2.1-2,0-3.1-1.8-2.2-3.6.1-.3.1-.6,0-.9-.1-.6-.3-1.1-.4-1.7,0-.6-.4-.7-1-.7-3.6.1-7.2.3-10.8.4-.4,0-.8,0-1.2.1.2,1.3.3,2.4,1.8,2.9.6.2,1.1,1.2,1.2,1.9.1.9-.5,1.6-1.4,2-1.1.5-2.2.4-3.2-.4-.7-.6-1.2-1.6-.6-2.3,1-1.5,0-2.7-.1-4-1.7,0-3.3.2-4.8.3-2.8.2-4.2,1.7-4.4,4.5,0,.4,0,.8-.1,1.2-.1,1.9-.3,3.8-.4,5.7ZM437.4,241.8c8.6,0,15.6-7,15.6-15.6,0-8.7-7-15.6-15.7-15.6-8.6,0-15.6,7-15.5,15.6,0,8.6,7,15.6,15.6,15.5ZM393.8,156.7c0-.8,0-1.4-.2-2-.3-1.1-.5-2.2-1.1-3.1-.6-1-1.6-.9-2,.1-.6,1.6-.8,3.2-.7,5h4ZM426,157.4c0-.8,0-1.5-.2-2.2-.3-1-.5-2-1.1-2.8-.5-.9-1.4-.8-1.8,0-.8,1.5-.8,3.2-.8,4.8,1.2,0,2.2.1,3.2.2.2,0,.4,0,.8,0ZM408.9,156.7c0-.8,0-1.5-.3-2.1-.3-.9-.6-1.9-1.2-2.6-.5-.7-1.4-.6-1.7.3-.6,1.4-.8,2.9-.7,4.5h3.9ZM379,157c-.6-1.7-1-3.1-1.7-4.4-.5-.9-1.4-.8-1.8.1-.7,1.4-.8,2.9-.7,4.6,1.4,0,2.6-.2,4.3-.3Z"/>
    <path class="cls-18" d="M362.6,173.7h1.4c23.7,0,47.3,0,71,0,1.5,0,1.5,0,1.5,1.5,0,9.8,0,19.7,0,29.5,0,1.2-.1,2.4-.2,3.7-1.4.1-2.8.2-4.1.4-6,1.2-10.2,4.7-12.7,10.3-.3.6-.5.9-1.2,1-11.1.7-22.2,1.4-33.4,1.1-5-.1-10-.5-15-.8-2.4-.2-4.3-1.4-5.8-3.3-.4-.5-.7-1.2-.7-1.9-.8-12.3-1.3-24.5-.9-36.8,0-1.5.1-3,.2-4.6ZM421.1,191.1c1.7,0,3.4,0,5,0,.9,0,1.3-.5,1.4-1.3,0-2.7,0-5.5,0-8.2,0-.9-.5-1.4-1.4-1.4-3.3,0-6.6,0-9.9,0-.9,0-1.4.5-1.4,1.4,0,2.7,0,5.4,0,8.1,0,1,.5,1.5,1.5,1.4,1.6,0,3.2,0,4.8,0ZM399.2,209.5c1.6,0,3.3,0,4.9,0,1,0,1.5-.5,1.5-1.5,0-2.7,0-5.3,0-8,0-1.1-.4-1.5-1.5-1.5-3.2,0-6.4,0-9.6,0-1.1,0-1.5.4-1.5,1.5,0,2.6,0,5.2,0,7.9,0,1.2.4,1.5,1.5,1.5,1.6,0,3.2,0,4.8,0ZM376,209.5c1.6,0,3.2,0,4.8,0,1.2,0,1.6-.4,1.6-1.6,0-2.6,0-5.2,0-7.8,0-1.2-.4-1.6-1.6-1.6-3.2,0-6.4,0-9.6,0-1.1,0-1.5.4-1.5,1.5,0,2.6,0,5.2,0,7.9,0,1.2.3,1.5,1.6,1.5,1.6,0,3.1,0,4.7,0ZM375.6,191c1.6,0,3.2,0,4.8,0,1.2,0,1.5-.3,1.5-1.5,0-2.7,0-5.3,0-8,0-1.1-.4-1.5-1.5-1.5-3.2,0-6.3,0-9.5,0-1.2,0-1.6.4-1.6,1.6,0,2.6,0,5.2,0,7.9,0,1.1.4,1.5,1.5,1.5,1.6,0,3.2,0,4.8,0ZM421.5,209.7c1.6,0,3.2,0,4.8,0,1,0,1.5-.4,1.5-1.4,0-2.7,0-5.4,0-8.1,0-1-.5-1.5-1.5-1.5-3.2,0-6.5,0-9.7,0-.9,0-1.4.4-1.4,1.4,0,2.7,0,5.5,0,8.2,0,1,.5,1.4,1.4,1.4,1.6,0,3.3,0,4.9,0ZM398.9,191c1.6,0,3.2,0,4.8,0,1,0,1.5-.4,1.5-1.4,0-2.7,0-5.4,0-8.1,0-1-.5-1.4-1.5-1.4-3.2,0-6.4,0-9.6,0-1.1,0-1.5.4-1.5,1.5,0,2.7,0,5.3,0,8,0,1,.4,1.5,1.5,1.5,1.6,0,3.3,0,4.9,0Z"/>
    <path class="cls-18" d="M362.8,171.3c.1-1.9.3-3.8.4-5.7,0-.4,0-.8.1-1.2.2-2.8,1.6-4.2,4.4-4.5,1.6-.1,3.1-.2,4.8-.3,0,1.3,1.1,2.5.1,4-.5.8,0,1.7.6,2.3,1,.8,2.1.9,3.2.4.9-.4,1.5-1.1,1.4-2-.1-.7-.6-1.7-1.2-1.9-1.5-.5-1.5-1.6-1.8-2.9.4,0,.8-.1,1.2-.1,3.6-.1,7.2-.2,10.8-.4.6,0,.9,0,1,.7,0,.6.3,1.1.4,1.7,0,.3,0,.6,0,.9-.9,1.8.2,3.5,2.2,3.6,1.4,0,2.6-.9,2.8-2.1.2-1.1-.6-2.1-2-2.5-1.2-.4-.8-1.4-1.2-2.4,2.2,0,4.3,0,6.3,0s4.2,0,6.2,0c.3,1.1.6,2.2.8,3.2,0,.3,0,.6-.3.8-.8,1.2-.5,2.5.7,3.3,1.4.8,3.4.3,4-1,.6-1.2,0-2.4-1.3-3-1-.4-1.4-1.5-1.4-3,4,0,7.9,0,11.9,0,.9,0,2-.2,2.6.2.6.4.5,1.6.8,2.4.2.7.4,1.2-.1,1.9-.6.8-.2,1.9.6,2.6,1.1.9,2.8.8,3.8,0,1.1-1,1-2.9-.4-3.4-1.7-.6-1.7-1.9-2-3.2,1.2,0,2.4,0,3.6,0,2,0,3.9.2,5.9.3,2.1.2,3.6,1.5,3.9,3.5.3,2.6.4,5.1.6,7.8h-73.5Z"/>
    <path class="cls-19" d="M437.4,241.8c-8.6,0-15.6-6.9-15.6-15.5,0-8.6,6.9-15.6,15.5-15.6,8.7,0,15.7,6.9,15.7,15.6,0,8.6-7,15.6-15.6,15.6ZM435.8,230.2c-2-2-4-4-5.9-5.9-.6-.6-1.3-1-2-.3-.7.7-.3,1.3.3,1.9,2.2,2.2,4.3,4.3,6.5,6.5.8.8,1.4.8,2.1,0,3.9-3.9,7.7-7.7,11.6-11.6.6-.6.8-1.2.2-1.8-.7-.7-1.3-.4-1.9.2-1,1-2.1,2.1-3.1,3.1-2.6,2.6-5.2,5.2-7.9,7.9Z"/>
    <path class="cls-18" d="M393.8,156.7h-4c-.1-1.8,0-3.4.7-5,.4-1,1.4-1.2,2-.1.5.9.8,2.1,1.1,3.1.2.5.1,1.1.2,2Z"/>
    <path class="cls-18" d="M426,157.4c-.4,0-.6,0-.8,0-1,0-2-.1-3.2-.2,0-1.7,0-3.3.8-4.8.4-.8,1.3-.8,1.8,0,.5.8.8,1.8,1.1,2.8.2.7.2,1.4.2,2.2Z"/>
    <path class="cls-18" d="M408.9,156.7h-3.9c0-1.6,0-3.1.7-4.5.4-.8,1.2-1,1.7-.3.6.8.9,1.7,1.2,2.6.2.6.2,1.4.3,2.1Z"/>
    <path class="cls-18" d="M379,157c-1.7,0-2.9.2-4.3.3,0-1.6,0-3.2.7-4.6.5-.9,1.3-1.1,1.8-.1.7,1.3,1.1,2.8,1.7,4.4Z"/>
    <path class="cls-14" d="M421.1,191.1c-1.6,0-3.2,0-4.8,0-1,0-1.5-.4-1.5-1.4,0-2.7,0-5.4,0-8.1,0-.9.5-1.4,1.4-1.4,3.3,0,6.6,0,9.9,0,.9,0,1.4.5,1.4,1.4,0,2.7,0,5.5,0,8.2,0,.9-.4,1.3-1.4,1.3-1.7,0-3.4,0-5,0ZM425.1,182.6h-7.9v6.2h7.9v-6.2Z"/>
    <path class="cls-14" d="M399.2,209.5c-1.6,0-3.2,0-4.8,0-1.1,0-1.5-.4-1.5-1.5,0-2.6,0-5.2,0-7.9,0-1.1.4-1.5,1.5-1.5,3.2,0,6.4,0,9.6,0,1.1,0,1.5.4,1.5,1.5,0,2.7,0,5.3,0,8,0,1-.4,1.5-1.5,1.5-1.6,0-3.3,0-4.9,0ZM395.3,201v6.2h7.9v-6.2h-7.9Z"/>
    <path class="cls-14" d="M376,209.5c-1.6,0-3.1,0-4.7,0-1.3,0-1.6-.3-1.6-1.5,0-2.6,0-5.2,0-7.9,0-1.1.4-1.5,1.5-1.5,3.2,0,6.4,0,9.6,0,1.2,0,1.5.4,1.6,1.6,0,2.6,0,5.2,0,7.8,0,1.2-.4,1.6-1.6,1.6-1.6,0-3.2,0-4.8,0ZM372,207.2h7.9v-6.2h-7.9v6.2Z"/>
    <path class="cls-14" d="M375.6,191c-1.6,0-3.2,0-4.8,0-1.1,0-1.5-.4-1.5-1.5,0-2.6,0-5.2,0-7.9,0-1.2.4-1.6,1.6-1.6,3.2,0,6.3,0,9.5,0,1.1,0,1.5.4,1.5,1.5,0,2.7,0,5.3,0,8,0,1.2-.3,1.5-1.5,1.5-1.6,0-3.2,0-4.8,0ZM371.7,188.6h7.9v-6.2h-7.9v6.2Z"/>
    <path class="cls-14" d="M421.5,209.7c-1.6,0-3.3,0-4.9,0-1,0-1.4-.4-1.4-1.4,0-2.7,0-5.5,0-8.2,0-1,.5-1.4,1.4-1.4,3.2,0,6.5,0,9.7,0,1,0,1.5.5,1.5,1.5,0,2.7,0,5.4,0,8.1,0,1-.5,1.4-1.5,1.4-1.6,0-3.2,0-4.8,0ZM425.5,201.2h-7.9v6.2h7.9v-6.2Z"/>
    <path class="cls-14" d="M398.9,191c-1.6,0-3.3,0-4.9,0-1,0-1.5-.5-1.5-1.5,0-2.7,0-5.3,0-8,0-1.1.4-1.5,1.5-1.5,3.2,0,6.4,0,9.6,0,1,0,1.5.4,1.5,1.4,0,2.7,0,5.4,0,8.1,0,1-.5,1.4-1.5,1.4-1.6,0-3.2,0-4.8,0ZM394.9,188.6h7.9v-6.2h-7.9v6.2Z"/>
    <path class="cls-14" d="M435.8,230.2c2.7-2.7,5.3-5.3,7.9-7.9,1-1,2.1-2.1,3.1-3.1.6-.6,1.2-.9,1.9-.2.6.6.4,1.2-.2,1.8-3.9,3.9-7.7,7.7-11.6,11.6-.8.8-1.3.8-2.1,0-2.2-2.2-4.3-4.3-6.5-6.5-.6-.6-.9-1.2-.3-1.9.7-.7,1.4-.3,2,.3,1.9,1.9,3.9,3.9,5.9,5.9Z"/>
    <path class="cls-18" d="M425.1,182.6v6.2h-7.9v-6.2h7.9Z"/>
    <path class="cls-18" d="M395.3,201h7.9v6.2h-7.9v-6.2Z"/>
    <path class="cls-18" d="M372,207.2v-6.2h7.9v6.2h-7.9Z"/>
    <path class="cls-18" d="M371.7,188.6v-6.2h7.9v6.2h-7.9Z"/>
    <path class="cls-18" d="M425.5,201.2v6.2h-7.9v-6.2h7.9Z"/>
    <path class="cls-18" d="M394.9,188.6v-6.2h7.9v6.2h-7.9Z"/>
  </g>
  <g>
    <path class="cls-14" d="M133,277c1.2,1.8,1.9,3.7,1.8,5.7,0,0,0,.1,0,.2-.7,1.7.2,2.9,1.2,4.1,1,1.2,1.8,2.6,1.9,4.2,0,.4,0,.9-.2,1.3-1.8,3.9-4.7,6.4-9,7.1-2,.3-3.4-.7-4.4-2.3-1.2-2-2.4-4-3.5-6.1-1.4-2.8-2.7-5.6-4-8.4-1,.4-2.1.9-3.2,1.2-1.7.5-3.5.6-5.3.2-.3,0-.7,0-1,.2-1,.6-2,.6-3,.1-3-1.4-5-3.8-6.2-6.8-.4-1-.1-1.9.7-2.6.2-.2.3-.5.3-.8-.4-4.1,1-7.6,4.1-10.3,2.3-2,4.9-3.9,7.2-5.9,7.4-6.4,13.4-14,18.2-22.6.7-1.2,1.2-2.5,2.6-3.1,1.8-.9,3.5-.7,5.1.5.7.5,1.4,1.2,1.9,1.8,5.2,6.5,9.8,13.3,13.2,20.9,2.6,5.8,4.3,11.8,4.7,18.2,0,1.1,0,2.3-.4,3.3-.7,2.2-3.3,4.1-6.2,2-.5-.4-1.2-.7-1.9-.9-4.6-1.4-9.2-2-14-1.4-.2,0-.3,0-.6,0ZM128.7,239.7c-.2.2-.3.2-.3.2-3.4,5.4-7.2,10.4-11.5,14.9-.2.2-.3.6-.3.9,1.1,7.9,4.5,14.5,10.8,19.6.5.4.9.5,1.5.3,5.3-1.3,10.6-1.3,15.9-.2.3,0,.5,0,1,.2-9.8-10.1-15.8-21.9-17.1-36ZM114.7,257c-.8.8-1.5,1.4-2.2,2-2.4,1.9-4.8,3.9-7.1,5.8-.3.2-.6.6-.5.9.4,6.5,3.4,12,10.3,14.9.3.1.9,0,1.2-.2,1.2-.8,1.6-.6,2.1.7,1.2,2.9,2.4,5.8,3.8,8.6,1,2.1,2.3,4.1,3.5,6.2.7,1.1,1.6,1.9,3,1.6,2-.5,3.9-1.3,5.3-2.9.6-.6.7-1.4.3-2.1-2.5-4.9-5.7-9.4-9.2-13.7-1-1.2-1.1-1.6.4-2.3-6-5.1-9.5-11.6-10.8-19.5ZM133.1,251.5c.7-.1,1.3-.2,1.8-.4,1.6-.6,3.2-1.2,4.8-2,1-.5,1.8-.4,2.6.1.6.4,1.2.9,1.6,1.5,2.1,2.5,3.3,5.4,3.8,8.7.3,1.7-.1,3.1-1.6,4.3-1.3,1-2.5,2.3-3.7,3.5-.5.5-.6,1,0,1.6,2.6,2.8,5.2,5.6,7.9,8.4.3.3.7.5,1,.7.9.4,1.4.3,1.6-.8.2-1.4.4-2.9.3-4.3,0-3.4-1.1-6.5-2.1-9.7-3.3-10-8.8-18.9-15.8-26.7-.6-.7-1.3-1.2-2-1.7-1.2-.8-2.3-.2-2.6,1.2,0,.3-.1.7-.1,1,0,4.9.9,9.7,2.4,14.5ZM133.8,253.5c1.7,4.5,3.9,8.7,6.7,12.6,1.2-1.2,2.3-2.4,3.5-3.5-1.6-1.4-2.7-3-3.5-5-.7-1.9-1.3-3.8-2-5.7-1.4.5-3,1-4.7,1.5ZM102.9,267.6c-2.5,2.5-2.5,7.5-.2,10.8,2.3,3.4,7.1,5,10.4,3.5-5.7-3.1-9.3-7.8-10.2-14.4ZM127.3,278.2c1.7,2.3,3.2,4.4,4.9,6.7,1-2.4.6-4.5-.8-6.6-.5-.7-1-1.1-1.9-.7-.7.3-1.4.4-2.2.6Z"/>
    <path class="cls-14" d="M173,212c.2,2.8.5,5.7.7,8.5.3,3.4.5,6.9.8,10.3,0,1.2-.5,1.9-1.7,2-6.3.6-12.7,1.2-19,1.8-.9,0-1.3.4-1.4,1.3,0,.7-.4,1.3-.5,1.9-.2,1.3-1,2-2,2.6-.7.4-1.2.3-1.7-.3-1-1.2-1.9-2.5-2.9-3.7-.4-.6-.9-.8-1.7-.7-1.7.3-2.4-.3-2.6-2-.8-6.8-1.6-13.7-2.4-20.5-.2-1.5.6-2.6,2.2-2.8,4.2-.6,8.3-1.1,12.5-1.5,4.9-.5,9.8-.8,14.6-1.2,2.9-.2,4,.5,4.8,3.3.1.3.2.7.2,1,0,0,0,0,.1,0ZM172.1,231.1c0-.6,0-.9-.1-1.2-.7-6.5-1.4-12.9-2-19.4,0-.8-.3-1-1.1-.9-8.9.9-17.9,1.7-26.9,2.6-1.5.1-1.5.2-1.3,1.7.5,4.4,1,8.9,1.5,13.3.2,2.1.6,4.2.8,6.4.4,0,.6,0,.8,0,1.3-.4,2.1.2,2.8,1.2.6.9,1.3,1.8,2.1,2.7.6-1.2,1.3-2.2,1.8-3.4.5-1.1,1.4-1.5,2.5-1.5,3.8-.2,7.7-.4,11.5-.7,2.5-.2,5-.5,7.6-.8Z"/>
    <path class="cls-18" d="M128.7,239.7c1.3,14.1,7.2,25.8,17.1,36-.5,0-.8-.1-1-.2-5.3-1.1-10.6-1.1-15.9.2-.6.2-1,0-1.5-.3-6.3-5.1-9.7-11.7-10.8-19.6,0-.3,0-.7.3-.9,4.4-4.6,8.2-9.6,11.5-14.9,0,0,0,0,.3-.2Z"/>
    <path class="cls-9" d="M114.7,257c1.3,7.9,4.8,14.4,10.8,19.5-1.4.8-1.4,1.1-.4,2.3,3.5,4.3,6.7,8.7,9.2,13.7.4.8.3,1.5-.3,2.1-1.5,1.5-3.3,2.4-5.3,2.9-1.4.3-2.3-.5-3-1.6-1.2-2-2.5-4-3.5-6.2-1.4-2.8-2.6-5.7-3.8-8.6-.5-1.3-1-1.4-2.1-.7-.3.2-.9.3-1.2.2-6.9-2.9-9.9-8.4-10.3-14.9,0-.3.3-.7.5-.9,2.4-1.9,4.8-3.9,7.1-5.8.7-.6,1.4-1.2,2.2-2Z"/>
    <path class="cls-9" d="M133.1,251.5c-1.5-4.9-2.4-9.6-2.4-14.5,0-.3,0-.7.1-1,.3-1.4,1.4-1.9,2.6-1.2.7.5,1.4,1.1,2,1.7,7.1,7.8,12.5,16.6,15.8,26.7,1.1,3.2,2.1,6.3,2.1,9.7,0,1.4-.1,2.9-.3,4.3-.2,1-.6,1.2-1.6.8-.4-.2-.7-.4-1-.7-2.6-2.8-5.2-5.6-7.9-8.4-.6-.6-.5-1.1,0-1.6,1.2-1.2,2.3-2.5,3.7-3.5,1.5-1.2,1.9-2.6,1.6-4.3-.5-3.2-1.8-6.1-3.8-8.7-.5-.6-1-1.1-1.6-1.5-.8-.6-1.6-.6-2.6-.1-1.5.8-3.2,1.4-4.8,2-.6.2-1.2.3-1.8.4Z"/>
    <path class="cls-18" d="M133.8,253.5c1.7-.6,3.3-1.1,4.7-1.5.6,1.9,1.2,3.8,2,5.7.8,1.9,1.9,3.6,3.5,5-1.1,1.2-2.3,2.3-3.5,3.5-2.8-3.9-5-8.1-6.7-12.6Z"/>
    <path class="cls-18" d="M102.9,267.6c.9,6.6,4.4,11.2,10.2,14.4-3.3,1.5-8-.2-10.4-3.5-2.3-3.4-2.3-8.3.2-10.8Z"/>
    <path class="cls-18" d="M127.3,278.2c.8-.2,1.6-.4,2.2-.6.9-.4,1.4,0,1.9.7,1.4,2,1.8,4.2.8,6.6-1.6-2.2-3.2-4.4-4.9-6.7Z"/>
    <path class="cls-18" d="M172.1,231.1c-2.6.3-5.1.6-7.6.8-3.8.3-7.7.5-11.5.7-1.2,0-2,.5-2.5,1.5-.5,1.1-1.2,2.2-1.8,3.4-.7-.9-1.4-1.8-2.1-2.7-.7-1-1.5-1.6-2.8-1.2-.2,0-.4,0-.8,0-.3-2.1-.6-4.2-.8-6.4-.5-4.4-1-8.9-1.5-13.3-.2-1.5-.2-1.6,1.3-1.7,9-.9,17.9-1.7,26.9-2.6.8,0,1,.1,1.1.9.6,6.5,1.3,12.9,2,19.4,0,.3,0,.6.1,1.2ZM156.9,230.2c5.1-1.1,8.4-6.1,7.4-10.9-1.1-5.2-6.3-8.5-11.5-7.3-5,1.1-8.2,6-7.1,11,1.1,5,6.2,8.3,11.2,7.2Z"/>
    <path class="cls-14" d="M156.9,230.2c-5,1.1-10.1-2.2-11.2-7.2-1.1-5,2.1-9.9,7.1-11,5.2-1.1,10.4,2.1,11.5,7.3,1,4.8-2.3,9.8-7.4,10.9ZM162.3,219.8c-.9-4.2-4.9-6.7-9.2-5.7-3.9.9-6.3,4.7-5.4,8.6.9,3.9,4.9,6.5,8.7,5.6,3.9-.9,6.7-4.8,5.9-8.5Z"/>
    <path class="cls-11" d="M162.3,219.8c.8,3.7-1.9,7.6-5.9,8.5-3.9.9-7.9-1.7-8.7-5.6-.9-3.9,1.5-7.7,5.4-8.6,4.2-1,8.3,1.6,9.2,5.7ZM155.7,224.9c1.1-.4,2-1.1,2.4-2.4.2-.6,0-1.1-.6-1.3-.6-.2-1.1,0-1.3.6-.2.7-.6,1.2-1.3,1.2-.8,0-1.1-.5-1.4-1.1-.2-.6-.7-.9-1.3-.6-.6.2-.7.8-.6,1.4.4,1.6,2.3,2.7,4.1,2.3ZM151.9,219.5c.1-.3.5-.8.4-1.2,0-.8-.8-.8-1.4-.7-.6.1-.9.6-.8,1.2.2.8.8.9,1.8.7ZM157.2,216.6c-.1,0-.3,0-.4,0-.2.5-.6.9-.6,1.4,0,.6.5,1,1.1.8.7-.1,1.1-.7.9-1.3-.1-.4-.6-.7-1-1Z"/>
    <path class="cls-14" d="M155.7,224.9c-1.8.4-3.6-.7-4.1-2.3-.2-.6,0-1.1.6-1.4.6-.2,1.1,0,1.3.6.3.6.6,1.1,1.4,1.1.7,0,1.1-.5,1.3-1.2.2-.6.7-.9,1.3-.6.6.2.8.7.6,1.3-.4,1.3-1.3,2.1-2.4,2.4Z"/>
    <path class="cls-14" d="M151.9,219.5c-1,.1-1.6,0-1.8-.7-.1-.6.2-1.1.8-1.2.6-.1,1.3,0,1.4.7,0,.4-.3.9-.4,1.2Z"/>
    <path class="cls-14" d="M157.2,216.6c.3.3.9.6,1,1,.2.7-.2,1.2-.9,1.3-.6.1-1.1-.2-1.1-.8,0-.5.4-.9.6-1.4.1,0,.3,0,.4,0Z"/>
  </g>
</svg>